<?xml version="1.0" encoding="UTF-8" standalone="no"?>
<!-- Generator: Adobe Illustrator 19.2.1, SVG Export Plug-In . SVG Version: 6.00 Build 0)  -->

<svg
   xmlns:dc="http://purl.org/dc/elements/1.1/"
   xmlns:cc="http://creativecommons.org/ns#"
   xmlns:rdf="http://www.w3.org/1999/02/22-rdf-syntax-ns#"
   xmlns:svg="http://www.w3.org/2000/svg"
   xmlns="http://www.w3.org/2000/svg"
   xmlns:sodipodi="http://sodipodi.sourceforge.net/DTD/sodipodi-0.dtd"
   xmlns:inkscape="http://www.inkscape.org/namespaces/inkscape"
   version="1.1"
   id="Layer_1"
   x="0px"
   y="0px"
   viewBox="0 0 60 60"
   style="enable-background:new 0 0 60 60;"
   xml:space="preserve"
   sodipodi:docname="call-logo.svg"
   inkscape:version="0.92.3 (2405546, 2018-03-11)"><metadata
   id="metadata13"><rdf:RDF><cc:Work
       rdf:about=""><dc:format>image/svg+xml</dc:format><dc:type
         rdf:resource="http://purl.org/dc/dcmitype/StillImage" /></cc:Work></rdf:RDF></metadata><defs
   id="defs11" /><sodipodi:namedview
   pagecolor="#ffffff"
   bordercolor="#666666"
   borderopacity="1"
   objecttolerance="10"
   gridtolerance="10"
   guidetolerance="10"
   inkscape:pageopacity="0"
   inkscape:pageshadow="2"
   inkscape:window-width="1600"
   inkscape:window-height="799"
   id="namedview9"
   showgrid="false"
   inkscape:zoom="3.9333333"
   inkscape:cx="30"
   inkscape:cy="30"
   inkscape:window-x="0"
   inkscape:window-y="27"
   inkscape:window-maximized="1"
   inkscape:current-layer="Layer_1" />
<style
   type="text/css"
   id="style2">
	.st0{fill:#5C61A6;}
	.st1{fill:none;}
</style>
<path
   class="st0"
   d="M30.4,3.4C15.9,3.4,4.2,15.1,4.2,29.5c0,14.4,11.8,26.2,26.2,26.2c9.5,0,12.9-3.5,14.2-6.5c1-2.5,0.6-5.1,0-6.4  l0.9-0.9c0.8-0.8,1.3-1.9,1.3-3c0.1-1.1-0.3-2.2-1.1-2.9l-3.4-3.4c-1.6-1.5-4.2-1.4-5.9,0.3l-0.8,0.8c-3.4-2.8-6.7-6-9.4-9.4  l0.8-0.8c1.7-1.7,1.8-4.3,0.3-5.9l-3.4-3.4C23,13.4,22,13,20.9,13.1c-1.1,0.1-2.1,0.5-3,1.3l-2.1,2.1c-2,2-2.5,5.2-1.1,7.4  c5.4,8.5,12.7,15.9,21.2,21.2c0.9,0.6,1.9,0.8,2.9,0.8c1.6,0,3.2-0.7,4.5-1.9l0,0c0.3,1,0.5,2.9-0.4,4.8c-1.6,3.5-6,5.4-12.7,5.4  c-13.6,0-24.7-11.1-24.7-24.7c0-13.6,11.1-24.7,24.7-24.7s24.7,11.1,24.7,24.7c0,5-1.5,9.8-4.3,14c-0.2,0.3-0.1,0.8,0.2,1  c0.3,0.2,0.8,0.1,1-0.2c3-4.4,4.6-9.5,4.6-14.8C56.6,15.1,44.8,3.4,30.4,3.4z M36.8,43.9C28.4,38.7,21.3,31.5,16,23.1  c-1-1.7-0.7-4,0.9-5.5l2.1-2.1c0.5-0.5,1.2-0.9,2-0.9c0,0,0.1,0,0.1,0c0.6,0,1.2,0.2,1.6,0.7l3.4,3.4c1,1,0.9,2.7-0.3,3.8l-1.3,1.3  c-0.3,0.3-0.3,0.7-0.1,1c3.1,3.8,6.8,7.5,10.6,10.6c0.3,0.2,0.7,0.2,1-0.1l1.3-1.3c1.1-1.1,2.8-1.2,3.8-0.3l3.4,3.4  c0.5,0.5,0.7,1.1,0.7,1.8c0,0.7-0.4,1.4-0.9,2L42.3,43C40.8,44.6,38.4,45,36.8,43.9z"
   id="path4"
   style="fill:#ffffff;fill-opacity:1" />
<rect
   class="st1"
   width="60"
   height="60"
   id="rect6" />
</svg>