<?xml version="1.0" encoding="UTF-8" standalone="no"?>
<!-- Generator: Adobe Illustrator 19.0.0, SVG Export Plug-In . SVG Version: 6.00 Build 0)  -->

<svg
   xmlns:dc="http://purl.org/dc/elements/1.1/"
   xmlns:cc="http://creativecommons.org/ns#"
   xmlns:rdf="http://www.w3.org/1999/02/22-rdf-syntax-ns#"
   xmlns:svg="http://www.w3.org/2000/svg"
   xmlns="http://www.w3.org/2000/svg"
   xmlns:sodipodi="http://sodipodi.sourceforge.net/DTD/sodipodi-0.dtd"
   xmlns:inkscape="http://www.inkscape.org/namespaces/inkscape"
   version="1.1"
   id="Layer_1"
   x="0px"
   y="0px"
   viewBox="0 0 46.5 65.099998"
   xml:space="preserve"
   sodipodi:docname="logo.svg"
   width="46.5"
   height="65.099998"
   inkscape:version="0.92.3 (2405546, 2018-03-11)"><metadata
   id="metadata11"><rdf:RDF><cc:Work
       rdf:about=""><dc:format>image/svg+xml</dc:format><dc:type
         rdf:resource="http://purl.org/dc/dcmitype/StillImage" /><dc:title></dc:title></cc:Work></rdf:RDF></metadata><defs
   id="defs9" /><sodipodi:namedview
   pagecolor="#ffffff"
   bordercolor="#666666"
   borderopacity="1"
   objecttolerance="10"
   gridtolerance="10"
   guidetolerance="10"
   inkscape:pageopacity="0"
   inkscape:pageshadow="2"
   inkscape:window-width="1600"
   inkscape:window-height="799"
   id="namedview7"
   showgrid="false"
   fit-margin-top="0"
   fit-margin-left="0"
   fit-margin-right="0"
   fit-margin-bottom="0"
   inkscape:zoom="4.9166667"
   inkscape:cx="0.61221957"
   inkscape:cy="52.437878"
   inkscape:window-x="0"
   inkscape:window-y="27"
   inkscape:window-maximized="1"
   inkscape:current-layer="layer1" />
<style
   type="text/css"
   id="style2">
	.st0{fill:#333333;}
</style>

<g
   inkscape:groupmode="layer"
   id="layer1"
   inkscape:label="Layer 1"
   transform="translate(-23.111119,-16.33899)"><g
     transform="translate(-1.5888806,0.83898954)"
     id="XMLID_1_"
     style="fill:#fffff8;fill-opacity:1"><path
       id="XMLID_7_"
       class="st0"
       d="m 71.2,34.1 c 0,-5.2 -4.1,-9.3 -9.3,-9.3 -5.2,0 -9.3,4.1 -9.3,9.3 0,3.4 1.9,6.4 4.6,8 v 1.4 c -0.1,2.4 -1.1,4.5 -2.9,6.4 -1.9,1.9 -4,2.8 -6.4,2.9 -3.9,0.1 -6.9,0.7 -9.3,2.1 V 32.8 c 2.7,-1.6 4.6,-4.5 4.6,-8 0,-5.2 -4.1,-9.3 -9.3,-9.3 -5.2,0 -9.2,4.1 -9.2,9.3 0,3.4 1.9,6.4 4.6,8 v 30.5 c -2.7,1.6 -4.6,4.6 -4.6,8 0,5.2 4.1,9.3 9.3,9.3 5.2,0 9.3,-4.1 9.3,-9.3 0,-2.5 -0.9,-4.6 -2.5,-6.3 0.4,-0.3 2.2,-1.9 2.7,-2.2 1.2,-0.5 2.6,-0.8 4.4,-0.8 4.9,-0.2 9.1,-2.1 12.8,-5.8 3.7,-3.7 5.6,-9.2 5.8,-14 h -0.1 c 2.9,-1.8 4.8,-4.7 4.8,-8.1 z M 34.1,19.2 c 3.1,0 5.6,2.6 5.6,5.6 0,3 -2.6,5.6 -5.6,5.6 -3,0 -5.6,-2.960135 -5.6,-5.6 0,-2.639865 2.6,-5.6 5.6,-5.6 z m 0,57.6 c -3.1,0 -5.6,-2.6 -5.6,-5.6 0,-3 2.6,-5.6 5.6,-5.6 3,0 5.6,2.6 5.6,5.6 -0.1,3.1 -2.6,5.6 -5.6,5.6 z M 61.9,39.7 c -3.1,0 -5.6,-2.6 -5.6,-5.6 0,-3 2.6,-5.6 5.6,-5.6 3,0 5.6,2.6 5.6,5.6 0,3 -2.6,5.6 -5.6,5.6 z"
       style="fill:#fffff8;fill-opacity:1"
       inkscape:connector-curvature="0"
       sodipodi:nodetypes="sssccccccsssccssscccsccssssasssscssssss" /></g></g></svg>