<?xml version="1.0" encoding="UTF-8" standalone="no"?>
<!-- Generator: Adobe Illustrator 21.0.2, SVG Export Plug-In . SVG Version: 6.00 Build 0)  -->

<svg
   xmlns:dc="http://purl.org/dc/elements/1.1/"
   xmlns:cc="http://creativecommons.org/ns#"
   xmlns:rdf="http://www.w3.org/1999/02/22-rdf-syntax-ns#"
   xmlns:svg="http://www.w3.org/2000/svg"
   xmlns="http://www.w3.org/2000/svg"
   xmlns:sodipodi="http://sodipodi.sourceforge.net/DTD/sodipodi-0.dtd"
   xmlns:inkscape="http://www.inkscape.org/namespaces/inkscape"
   version="1.1"
   id="Layer_1"
   x="0px"
   y="0px"
   viewBox="0 0 500 500"
   style="enable-background:new 0 0 500 500;"
   xml:space="preserve"
   sodipodi:docname="mail-logo.svg"
   inkscape:version="0.92.3 (2405546, 2018-03-11)"><metadata
   id="metadata19"><rdf:RDF><cc:Work
       rdf:about=""><dc:format>image/svg+xml</dc:format><dc:type
         rdf:resource="http://purl.org/dc/dcmitype/StillImage" /></cc:Work></rdf:RDF></metadata><defs
   id="defs17">
	
	
	
	
</defs><sodipodi:namedview
   pagecolor="#ffffff"
   bordercolor="#666666"
   borderopacity="1"
   objecttolerance="10"
   gridtolerance="10"
   guidetolerance="10"
   inkscape:pageopacity="0"
   inkscape:pageshadow="2"
   inkscape:window-width="1600"
   inkscape:window-height="799"
   id="namedview15"
   showgrid="false"
   inkscape:zoom="0.472"
   inkscape:cx="250"
   inkscape:cy="250"
   inkscape:window-x="0"
   inkscape:window-y="27"
   inkscape:window-maximized="1"
   inkscape:current-layer="Layer_1" />
<style
   type="text/css"
   id="style2">
	.st0{fill:#414042;}
</style>
<path
   style="fill:#ffffff;fill-opacity:1"
   inkscape:connector-curvature="0"
   id="path4"
   d="M 460.6,141 423.7,123.4 V 59.1 c 0,-7 -5.7,-12.8 -12.8,-12.8 H 87.6 c -7,0 -12.8,5.7 -12.8,12.8 v 62.6 L 35.9,141.3 C 26.3,143.3 19,151.9 19,162.1 V 432 c 0,11.7 9.5,21.3 21.3,21.3 h 418 c 11.7,0 21.3,-9.5 21.3,-21.3 V 162.1 c -0.1,-10.9 -8.3,-19.9 -19,-21.1 z m -22.1,12.9 -14.7,11.3 V 146.9 Z M 407.4,62.6 v 115 l -158.1,121 -76.1,-58.2 h 61.2 c 1.7,0 3.1,-3.2 3.1,-7 0,-3.9 -1.4,-7 -3.1,-7 H 154.8 L 91.2,177.8 V 62.8 H 407.4 Z M 74.8,165.2 59.2,153.3 74.8,145.4 Z M 463.2,432 c 0,2.7 -2.3,4.9 -4.9,4.9 h -418 c -2.7,0 -4.9,-2.3 -4.9,-4.9 V 162.1 c 0,-1.9 1.2,-3.6 2.8,-4.5 L 249.3,319 460.4,157.6 c 1.7,0.8 2.8,2.5 2.8,4.5 z"
   class="st0" /><path
   style="fill:#ffffff;fill-opacity:1"
   inkscape:connector-curvature="0"
   id="path6"
   d="m 156.8,120.1 h 186 c 3.9,0 7,-3.2 7,-7 0,-3.9 -3.2,-7 -7,-7 h -186 c -3.9,0 -7,3.2 -7,7 0,3.9 3.1,7 7,7 z"
   class="st0" /><path
   style="fill:#ffffff;fill-opacity:1"
   inkscape:connector-curvature="0"
   id="path8"
   d="m 156.8,161 h 186 c 3.9,0 7,-3.2 7,-7 0,-3.9 -3.2,-7 -7,-7 h -186 c -3.9,0 -7,3.2 -7,7 0,3.8 3.1,7 7,7 z"
   class="st0" /><path
   style="fill:#ffffff;fill-opacity:1"
   inkscape:connector-curvature="0"
   id="path10"
   d="m 156.8,199.5 h 186 c 3.9,0 7,-3.2 7,-7 0,-3.9 -3.2,-7 -7,-7 h -186 c -3.9,0 -7,3.2 -7,7 0,3.9 3.1,7 7,7 z"
   class="st0" />
</svg>